<svg height="384pt" viewBox="0 0 26 17.454" width="384pt" xmlns="http://www.w3.org/2000/svg">
<path d="M.729 0A.72.72 0 0 0 0 .734v1.441c0 .405.316.734.729.734h24.543A.72.72 0 0 0 26 2.175V.734A.725.725 0 0 0 25.271 0H.729zm0 7.273A.72.72 0 0 0 0 8.007v1.44c0 .405.316.734.729.734h24.543a.72.72 0 0 0 .729-.734v-1.44a.725.725 0 0 0-.729-.734H.729zm0 7.272a.72.72 0 0 0-.729.734v1.441c0 .405.316.734.729.734h24.543a.72.72 0 0 0 .729-.734v-1.441a.725.725 0 0 0-.729-.734H.729z"></path>
<path d="M.729 0A.72.72 0 0 0 0 .734v1.441c0 .405.316.734.729.734h24.543A.72.72 0 0 0 26 2.175V.734A.725.725 0 0 0 25.271 0H.729zm0 7.273A.72.72 0 0 0 0 8.007v1.44c0 .405.316.734.729.734h24.543a.72.72 0 0 0 .729-.734v-1.44a.725.725 0 0 0-.729-.734H.729zm0 7.272a.72.72 0 0 0-.729.734v1.441c0 .405.316.734.729.734h24.543a.72.72 0 0 0 .729-.734v-1.441a.725.725 0 0 0-.729-.734H.729z"></path>
</svg>